HIERARCHY
ROOT joint_Root
{
	OFFSET 0.0 0.0 0.0
	CHANNELS 6 Xposition Yposition Zposition Zrotation Xrotation Yrotation 
	JOINT Hips
	{
		OFFSET -17.1583 93.1646 452.98
		CHANNELS 6 Xposition Yposition Zposition Zrotation Xrotation Yrotation 
		JOINT Spine
		{
			OFFSET 15.7357 0.0 0.0
			CHANNELS 6 Xposition Yposition Zposition Zrotation Xrotation Yrotation 
			JOINT Chest
			{
				OFFSET 8.98455 -0.406207 0.0
				CHANNELS 6 Xposition Yposition Zposition Zrotation Xrotation Yrotation 
				JOINT Neck
				{
					OFFSET 16.3773 0.0 0.0
					CHANNELS 6 Xposition Yposition Zposition Zrotation Xrotation Yrotation 
					JOINT Head
					{
						OFFSET 6.45672 0.0 0.0
						CHANNELS 6 Xposition Yposition Zposition Zrotation Xrotation Yrotation 
						End Site
						{
							OFFSET 0.0 0.0 0.0
						}
					}
				}
				JOINT Shoulder_L
				{
					OFFSET 12.9942 -0.242716 4.98039
					CHANNELS 6 Xposition Yposition Zposition Zrotation Xrotation Yrotation 
					JOINT UpperArm_L
					{
						OFFSET 5.34809 0.0 0.0
						CHANNELS 6 Xposition Yposition Zposition Zrotation Xrotation Yrotation 
						JOINT LowerArm_L
						{
							OFFSET 24.3286 1.87007e-05 0.0
							CHANNELS 6 Xposition Yposition Zposition Zrotation Xrotation Yrotation 
							JOINT Hand_L
							{
								OFFSET 22.2916 0.0 0.0
								CHANNELS 6 Xposition Yposition Zposition Zrotation Xrotation Yrotation 
								End Site
								{
									OFFSET 0.0 0.0 0.0
								}
							}
						}
					}
				}
				JOINT Shoulder_R
				{
					OFFSET 12.9945 -0.242716 -4.98039
					CHANNELS 6 Xposition Yposition Zposition Zrotation Xrotation Yrotation 
					JOINT UpperArm_R
					{
						OFFSET -5.34813 0.0 0.0
						CHANNELS 6 Xposition Yposition Zposition Zrotation Xrotation Yrotation 
						JOINT LowerArm_R
						{
							OFFSET -24.3289 0.000322201 0.0
							CHANNELS 6 Xposition Yposition Zposition Zrotation Xrotation Yrotation 
							JOINT Hand_R
							{
								OFFSET -22.2915 -0.000108084 0.0
								CHANNELS 6 Xposition Yposition Zposition Zrotation Xrotation Yrotation 
								End Site
								{
									OFFSET 0.0 0.0 0.0
								}
							}
						}
					}
				}
			}
		}
		JOINT UpperLeg_L
		{
			OFFSET -2.19248 -6.46944 0.0
			CHANNELS 6 Xposition Yposition Zposition Zrotation Xrotation Yrotation 
			JOINT LowerLeg_L
			{
				OFFSET 39.0811 0.0 -1.23785e-05
				CHANNELS 6 Xposition Yposition Zposition Zrotation Xrotation Yrotation 
				JOINT Foot_L
				{
					OFFSET 40.9854 0.0 -1.26872e-05
					CHANNELS 6 Xposition Yposition Zposition Zrotation Xrotation Yrotation 
					JOINT Toes_L
					{
						OFFSET 11.7543 0.0 0.0
						CHANNELS 6 Xposition Yposition Zposition Zrotation Xrotation Yrotation 
						End Site
						{
							OFFSET 0.0 0.0 0.0
						}
					}
				}
			}
		}
		JOINT UpperLeg_R
		{
			OFFSET -2.19251 6.46944 0.0
			CHANNELS 6 Xposition Yposition Zposition Zrotation Xrotation Yrotation 
			JOINT LowerLeg_R
			{
				OFFSET -39.0811 -0.00228153 -0.0401928
				CHANNELS 6 Xposition Yposition Zposition Zrotation Xrotation Yrotation 
				JOINT Foot_R
				{
					OFFSET -40.9854 0.0 0.0
					CHANNELS 6 Xposition Yposition Zposition Zrotation Xrotation Yrotation 
					JOINT Toes_R
					{
						OFFSET -11.7543 0.0 0.0
						CHANNELS 6 Xposition Yposition Zposition Zrotation Xrotation Yrotation 
						End Site
						{
							OFFSET 0.0 0.0 0.0
						}
					}
				}
			}
		}
	}
}
MOTION
Frames:	4
Frame Time:	0.0333333
0.000000 0.000000 0.000000 0.000000 0.000000 -0.000000 -0.688208 93.237600 -0.974477 86.767900 -1.516340 -1.763650 15.735700 0.000005 -0.000001 88.310200 88.316000 -86.463600 8.984550 -0.406207 -0.000000 -4.392070 -0.295043 3.684130 16.377300 -0.000001 -0.000001 1.733950 2.954030 -1.798130 6.456720 -0.000001 -0.000000 5.840190 3.071370 -0.237570 12.994200 -0.242716 4.980390 -92.055100 6.529730 -72.487500 5.348090 -0.000007 -0.000001 -74.940100 26.548700 4.297750 24.328600 0.000019 0.000005 15.302400 25.294300 -32.634400 22.291600 -0.000001 0.000005 -6.574720 5.062100 5.969410 12.994500 -0.242716 -4.980390 89.077300 3.158870 -73.708600 -5.348130 -0.000001 -0.000004 -72.113300 25.651700 -0.775784 -24.328900 0.000322 -0.000009 4.083640 8.775530 -25.082400 -22.291500 -0.000108 -0.000004 -2.221340 5.190600 2.953410 -2.192480 -6.469440 -0.000000 -176.641000 -1.075650 -4.578930 39.081100 -0.000007 -0.000012 0.171296 -0.537666 17.671700 40.985400 -0.000006 -0.000013 2.273770 7.086160 -70.778100 11.754300 -0.000000 0.000003 0.000191 0.164353 -9.910910 -2.192510 6.469440 -0.000001 -175.160000 5.076330 179.762000 -39.081100 -0.002282 -0.040193 0.005554 -0.012820 9.800710 -40.985400 0.000008 0.000006 -3.020580 4.137230 -66.183200 -11.754300 -0.000006 -0.000006 -0.009882 0.270418 -5.587260
0.000000 0.000000 0.000000 0.000000 0.000000 -0.000000 -0.703063 93.239300 -1.023380 86.691400 -1.505470 -1.853940 15.735700 0.000005 -0.000001 87.875800 88.296400 -85.995000 8.984550 -0.406207 -0.000000 -4.353160 -0.324982 3.751550 16.377300 -0.000001 -0.000001 1.346470 2.843230 -1.474180 6.456720 -0.000001 -0.000000 5.490190 3.088820 0.132918 12.994200 -0.242716 4.980390 -92.058400 6.515370 -72.424700 5.348090 -0.000007 -0.000001 -74.342900 25.225700 4.146250 24.328600 0.000019 0.000005 15.963400 25.585900 -33.519200 22.291600 -0.000001 0.000005 -6.745360 5.068060 5.836360 12.994500 -0.242716 -4.980390 89.090400 3.106380 -73.671200 -5.348130 -0.000001 -0.000004 -71.522800 23.726900 -0.680976 -24.328900 0.000322 -0.000009 4.716030 9.197150 -27.304100 -22.291500 -0.000108 -0.000004 -2.084580 5.168090 3.507190 -2.192480 -6.469440 -0.000000 -176.556000 -1.003970 -4.765150 39.081100 -0.000007 -0.000012 0.173400 -0.540519 17.786700 40.985400 -0.000006 -0.000013 2.253260 7.032390 -70.793600 11.754300 -0.000000 0.000003 0.000219 0.163855 -9.931110 -2.192510 6.469440 -0.000001 -175.056000 4.968590 179.674000 -39.081100 -0.002282 -0.040193 0.005077 -0.010146 9.720150 -40.985400 0.000008 0.000006 -3.044230 4.007890 -66.105700 -11.754300 -0.000006 -0.000006 -0.009803 0.269830 -5.611310
0.000000 0.000000 0.000000 0.000000 0.000000 -0.000000 -0.716037 93.242100 -1.073550 86.650600 -1.455760 -1.891960 15.735700 0.000005 -0.000001 87.460700 88.259800 -85.546900 8.984550 -0.406207 -0.000000 -4.280260 -0.355136 3.816430 16.377300 -0.000001 -0.000001 1.110070 2.719390 -1.174430 6.456720 -0.000001 -0.000000 4.947140 3.046140 0.538565 12.994200 -0.242716 4.980390 -92.082800 6.562200 -72.347800 5.348090 -0.000007 -0.000001 -73.603000 23.320300 4.183800 24.328600 0.000019 0.000005 17.322800 25.908400 -35.520100 22.291600 -0.000001 0.000005 -6.654400 5.072020 5.747870 12.994500 -0.242716 -4.980390 89.083000 3.106220 -73.544200 -5.348130 -0.000001 -0.000004 -70.843200 21.021300 -0.415973 -24.328900 0.000322 -0.000009 5.539330 9.482280 -30.487900 -22.291500 -0.000108 -0.000004 -2.192240 5.134220 4.317680 -2.192480 -6.469440 -0.000000 -176.508000 -0.910862 -4.887290 39.081100 -0.000007 -0.000012 0.175070 -0.543013 17.869900 40.985400 -0.000006 -0.000013 2.232370 6.979540 -70.826200 11.754300 -0.000000 0.000003 0.000057 0.166661 -9.817180 -2.192510 6.469440 -0.000001 -174.992000 4.875890 179.628000 -39.081100 -0.002282 -0.040193 0.004832 -0.008759 9.672910 -40.985400 0.000008 0.000006 -3.042130 3.883280 -66.076600 -11.754300 -0.000006 -0.000006 -0.009998 0.271293 -5.551470
0.000000 0.000000 0.000000 0.000000 0.000000 -0.000000 -0.727995 93.236700 -1.138310 86.584200 -1.463520 -1.962540 15.735700 0.000005 -0.000001 87.556300 88.230900 -85.600300 8.984550 -0.406207 -0.000000 -4.222010 -0.355242 3.900920 16.377300 -0.000001 -0.000001 0.850261 2.633350 -0.905639 6.456720 -0.000001 -0.000000 4.432630 3.045230 1.012480 12.994200 -0.242716 4.980390 -92.109500 6.578560 -72.176600 5.348090 -0.000007 -0.000001 -72.869400 20.332000 4.369780 24.328600 0.000019 0.000005 19.017200 25.689100 -38.487900 22.291600 -0.000001 0.000005 -6.229330 5.068490 5.826470 12.994500 -0.242716 -4.980390 89.076600 3.100700 -73.406700 -5.348130 -0.000001 -0.000004 -70.170000 17.727900 0.048925 -24.328900 0.000322 -0.000009 6.630820 9.651680 -34.738900 -22.291500 -0.000108 -0.000004 -2.283490 5.096940 5.183770 -2.192480 -6.469440 -0.000000 -176.433000 -0.853592 -5.088080 39.081100 -0.000007 -0.000012 0.178443 -0.547905 18.039900 40.985400 -0.000006 -0.000013 2.216490 6.934760 -70.845400 11.754300 -0.000000 0.000003 0.000190 0.164370 -9.910230 -2.192510 6.469440 -0.000001 -174.895000 4.808640 179.479000 -39.081100 -0.002282 -0.040193 0.005243 -0.011097 9.733260 -40.985400 0.000008 0.000006 -3.019180 3.845530 -66.047600 -11.754300 -0.000006 -0.000006 -0.009683 0.268917 -5.648640
